<svg width="3545" height="2293" viewBox="0 0 3545 2293" xmlns="http://www.w3.org/2000/svg">
    <path id="Path" fill="#ffd45b" stroke="none" d="M 2731.110107 1205.480713 C 2731.110107 1780.360718 2265.073975 2246.393066 1690.182129 2246.393066 C 1115.302002 2246.393066 649.237427 1780.360718 649.237427 1205.480713 C 649.237427 630.574707 1115.302002 164.52832 1690.182129 164.52832 C 2265.073975 164.52832 2731.110107 630.574707 2731.110107 1205.480713 Z"/>
    <g id="Group">
        <path id="path1" fill="none" stroke="#f59121" stroke-width="12.5" stroke-dasharray="25 25" stroke-dashoffset="0" d="M 2714.671143 1035.13208 C 2705.52832 1091.4104 2723.142822 1156.003662 2752.508789 1208.854248 C 2770.123779 1232.344727 2793.614014 1249.961182 2817.100342 1267.578125 C 2864.081299 1291.06665 2911.062012 1279.319092 2958.038818 1279.319092 C 3104.840576 1291.06665 3245.778809 1285.195068 3392.584473 1285.195068 C 3463.051758 1285.195068 3510.02832 1349.786621 3521.771484 1420.253906 C 3527.647461 1496.588135 3486.538086 1578.806641 3410.203613 1596.421143 C 3028.505859 1596.421143 2646.804199 1596.421143 2267.715088 1596.885498"/>
        <path id="path2" fill="none" stroke="#f59121" stroke-width="12.5" stroke-dasharray="25 25" stroke-dashoffset="0" d="M 829.344238 1649.729492 C 838.484985 1593.450684 820.868286 1528.855469 791.508423 1476.00293 C 773.891724 1452.512451 750.40332 1434.897949 726.910767 1417.283447 C 679.934204 1393.784668 632.95752 1405.532227 585.97876 1405.532227 C 439.170898 1393.784668 298.236572 1399.6604 151.432495 1399.6604 C 80.963745 1399.6604 33.984619 1335.064453 22.241699 1264.601807 C 16.369995 1188.262939 57.473328 1106.048584 133.815857 1088.432129 C 515.509521 1088.432129 897.207031 1088.432129 1276.300537 1087.974121"/>
        <path id="path3" fill="none" stroke="#ffffff" stroke-width="12.5" stroke-dasharray="25 25" stroke-dashoffset="0" d="M 1659.637939 913.432129 C 1754.584229 904.770752 1866.15625 945.878418 1901.389893 1039.831543 C 1913.137207 1227.744629 1913.137207 1409.787842 1907.261475 1597.695068 C 1907.261475 1650.547607 1948.37085 1685.776611 1995.347412 1709.26709 C 2048.200195 1732.757446 2112.79541 1721.018799 2165.643799 1691.652588 C 2195.005859 1674.038086 2200.876953 1644.675781 2218.496338 1621.185303 C 2230.239258 1597.695068 2224.36377 1568.341064 2224.36377 1544.85083 C 2212.620361 1421.5271 2224.36377 1298.20752 2220.949707 1174.054199"/>
        <path id="path4" fill="none" stroke="#f59121" stroke-width="12.5" stroke-dasharray="25 25" stroke-dashoffset="0" d="M 1657.682373 910.064453 C 1601.404297 919.205811 1536.806641 901.589111 1483.956299 872.227051 C 1460.468018 854.610352 1442.853516 831.120117 1425.234619 807.631592 C 1401.74585 760.654541 1413.491211 713.675781 1413.491211 666.695313 C 1401.74585 519.889648 1407.617676 378.955078 1407.617676 232.155518 C 1407.617676 161.688232 1343.02417 114.70752 1272.557129 102.962402 C 1196.218384 97.09082 1114.005859 138.195801 1096.387085 214.536621 C 1096.387085 596.227783 1096.387085 977.927979 1095.929077 1357.025391"/>
    </g>
    <g id="g1">
        <path id="path5" fill="#ffffff" stroke="#000000" stroke-width="16.666666" stroke-linejoin="round" d="M 343.776733 684.800537 C 354.18335 651.593018 370.90918 619.993408 394.220337 592.044922 L 393.902832 592.378662 L 362.408691 528.131348 L 419.340454 481.825928 L 475.828369 525.695801 L 475.459961 525.986572 C 507.42627 508.957764 541.7771 498.832031 576.440796 495.581299 L 599.697144 428.119141 L 672.571167 435.616211 L 681.459961 506.26416 C 714.754639 516.477539 746.468384 533.310791 774.320923 556.258301 L 838.187988 524.914551 L 884.603271 581.929688 L 840.871704 638.116699 C 857.89209 670.080811 867.847046 704.384521 871.161255 739.172363 L 938.44043 762.15625 L 931.020386 835.238037 L 860.335815 844.092041 C 850.136719 877.410889 833.370361 909.13501 810.270508 937.003662 L 841.514648 1000.79541 L 784.568848 1047.07666 L 728.530396 1003.503174 C 696.50708 1020.464844 662.026245 1030.419922 627.335938 1033.644775 L 604.158813 1101.12915 L 531.177002 1093.64209 L 522.345337 1022.738037 C 489.040405 1012.540771 457.442505 995.623779 429.641235 972.662354 L 365.607056 1004.087402 L 319.24292 947.133301 L 363.080322 890.795898 C 346.226318 858.911133 336.338745 824.513672 333.067139 789.910889 L 265.484985 766.766357 L 272.908691 693.731689 L 343.776733 684.800537 Z M 679.763306 701.357178 C 644.802124 658.416748 581.779663 652.052979 538.839111 686.962891 C 495.892822 721.911621 489.408813 784.853271 524.331299 827.817871 C 559.255371 870.748047 622.369995 877.307129 665.289551 842.429443 C 708.234131 807.505371 714.744629 744.287109 679.763306 701.357178 Z"/>
        <path id="path6" fill="none" stroke="#000000" stroke-width="16.666666" d="M 734.436157 907.324219 C 655.550415 982.113037 530.996216 978.79834 456.205811 899.935059 C 381.42334 821.063232 384.733398 696.505127 463.594971 621.714111"/>
        <path id="path7" fill="none" stroke="#000000" stroke-width="16.666666" d="M 776.904541 848.748779 C 771.677979 859.804199 765.381226 870.379639 758.142456 880.267578"/>
        <path id="path8" fill="none" stroke="#000000" stroke-width="16.666666" d="M 502.462036 660.677002 C 561.745483 604.441162 655.367554 606.943604 711.583008 666.214844 C 767.80249 725.500488 765.312134 819.124512 706.038696 875.3479"/>
        <path id="path9" fill="none" stroke="#000000" stroke-width="16.666666" d="M 470.528687 704.68335 C 474.461304 696.374512 479.193359 688.429932 484.64209 680.998047"/>
    </g>
    <g id="g2">
        <path id="path10" fill="#f59121" stroke="#000000" stroke-width="12.5" stroke-linecap="round" d="M 2193.05249 2143.390137 L 1077.984985 2146.588379 L 1078.379639 2276.121338 L 2193.427246 2272.943359 L 2193.05249 2143.390137 Z"/>
        <path id="path11" fill="#000000" stroke="none" d="M 2193.211182 2201.930664 L 1088.475098 2205.15332 L 1088.475098 2217.608887 L 2193.272461 2214.38623 L 2193.211182 2201.930664 Z"/>
        <path id="path12" fill="#f59121" stroke="none" d="M 2290.281494 2143.088867 L 2210.724365 2143.336914 L 2211.102539 2272.898438 L 2290.656006 2272.64209 L 2290.281494 2143.088867 Z"/>
        <path id="path13" fill="none" stroke="#000000" stroke-width="12.5" d="M 2308.31543 2263.507324 L 2308.327393 2263.507324 L 2327.51709 2263.446289 C 2345.551025 2263.393066 2360.138428 2248.740723 2360.077637 2230.710938 L 2359.947021 2184.593018 C 2359.922363 2166.587402 2345.237305 2152.008301 2327.21582 2152.032715 L 2307.997803 2152.105957 L 2307.997803 2152.105957 L 2308.31543 2263.507324 Z"/>
        <path id="path14" fill="none" stroke="#000000" stroke-width="12.5" stroke-linecap="round" d="M 1078.932983 2274.981934 L 1078.564941 2149.167969 C 1076.729614 2149.017578 1074.906738 2148.732422 1073.063843 2148.537109 L 915.358765 2211.952637 L 1075.411255 2275.063477 C 1076.583374 2274.997803 1077.75708 2274.997803 1078.932983 2274.981934 Z"/>
        <path id="path15" fill="#231f20" stroke="#000000" stroke-width="12.5" d="M 958.970459 2195.379395 L 915.358765 2211.875488 L 959.043823 2228.11084 L 958.970459 2195.379395 Z"/>
    </g>
    <g id="g3">
        <path id="path16" fill="#f59121" stroke="none" d="M 3054.5354 1905.800415 L 2201.62207 1905.800415 L 2201.62207 973.42749 L 3054.5354 1905.800415 Z M 2356.814209 1750.612427 L 2702.248291 1750.612427 L 2356.814209 1372.991943 L 2356.814209 1750.612427 Z"/>
        <g id="g4">
            <path id="path17" fill="none" stroke="#000000" stroke-width="12.5" d="M 2275.116455 1105.619629 C 2250.673828 1105.619629 2226.247559 1105.619629 2201.816895 1105.619629"/>
            <path id="path18" fill="none" stroke="#000000" stroke-width="12.5" d="M 2275.116455 1214.445068 C 2250.673828 1214.445068 2226.247559 1214.445068 2201.816895 1214.445068"/>
            <path id="path19" fill="none" stroke="#000000" stroke-width="12.5" d="M 2240.489014 1160.031982 C 2227.533447 1160.031982 2214.577393 1160.031982 2201.62207 1160.031982"/>
            <path id="path20" fill="none" stroke="#000000" stroke-width="12.5" d="M 2240.489014 1268.859863 C 2227.533447 1268.859863 2214.577393 1268.859863 2201.62207 1268.859863"/>
            <path id="path21" fill="none" stroke="#000000" stroke-width="12.5" d="M 2275.116455 1323.272949 C 2250.673828 1323.272949 2226.247559 1323.272949 2201.816895 1323.272949"/>
            <path id="path22" fill="none" stroke="#000000" stroke-width="12.5" d="M 2275.116455 1432.094727 C 2250.673828 1432.094727 2226.247559 1432.094727 2201.816895 1432.094727"/>
            <path id="path23" fill="none" stroke="#000000" stroke-width="12.5" d="M 2240.489014 1377.683838 C 2227.533447 1377.683838 2214.577393 1377.683838 2201.62207 1377.683838"/>
            <path id="path24" fill="none" stroke="#000000" stroke-width="12.5" d="M 2240.489014 1486.513428 C 2227.533447 1486.513428 2214.577393 1486.513428 2201.62207 1486.513428"/>
            <path id="path25" fill="none" stroke="#000000" stroke-width="12.5" d="M 2275.116455 1540.932617 C 2250.673828 1540.932617 2226.247559 1540.932617 2201.816895 1540.932617"/>
            <path id="path26" fill="none" stroke="#000000" stroke-width="12.5" d="M 2275.116455 1649.74585 C 2250.673828 1649.74585 2226.247559 1649.74585 2201.816895 1649.74585"/>
            <path id="path27" fill="none" stroke="#000000" stroke-width="12.5" d="M 2240.489014 1595.334961 C 2227.533447 1595.334961 2214.577393 1595.334961 2201.62207 1595.334961"/>
            <path id="path28" fill="none" stroke="#000000" stroke-width="12.5" d="M 2240.489014 1704.168701 C 2227.533447 1704.168701 2214.577393 1704.168701 2201.62207 1704.168701"/>
            <path id="path29" fill="none" stroke="#000000" stroke-width="12.5" d="M 2275.116455 1758.57959 C 2250.673828 1758.57959 2226.247559 1758.57959 2201.816895 1758.57959"/>
            <path id="path30" fill="none" stroke="#000000" stroke-width="12.5" d="M 2275.116455 1867.401245 C 2250.673828 1867.401245 2226.247559 1867.401245 2201.816895 1867.401245"/>
            <path id="path31" fill="none" stroke="#000000" stroke-width="12.5" d="M 2240.489014 1812.990356 C 2227.533447 1812.990356 2214.577393 1812.990356 2201.62207 1812.990356"/>
        </g>
    </g>
    <g id="g5">
        <path id="path32" fill="none" stroke="#000000" stroke-width="12.5" stroke-dasharray="25 8.333333" stroke-dashoffset="0" d="M 772.4104 1715.749268 L 441.211182 1715.749268 L 441.211182 1384.564209 L 772.4104 1384.564209 L 772.4104 1715.749268 Z"/>
        <g id="g6">
            <path id="path33" fill="#ffffff" stroke="#000000" stroke-width="12.5" d="M 494.189941 1427.90332 L 407.568726 1427.90332 L 407.568726 1341.27832 L 494.189941 1341.27832 L 494.189941 1427.90332 Z"/>
            <path id="path34" fill="#ffffff" stroke="#000000" stroke-width="12.5" d="M 806.050781 1427.90332 L 719.423706 1427.90332 L 719.423706 1341.27832 L 806.050781 1341.27832 L 806.050781 1427.90332 Z"/>
            <path id="path35" fill="#ffffff" stroke="#000000" stroke-width="12.5" d="M 494.189941 1759.03125 L 407.568726 1759.03125 L 407.568726 1672.4021 L 494.189941 1672.4021 L 494.189941 1759.03125 Z"/>
            <path id="path36" fill="#ffffff" stroke="#000000" stroke-width="12.5" d="M 806.050781 1759.03125 L 719.423706 1759.03125 L 719.423706 1672.4021 L 806.050781 1672.4021 L 806.050781 1759.03125 Z"/>
        </g>
    </g>
    <g id="g7">
        <path id="path37" fill="#ffffff" stroke="#000000" stroke-width="12.5" d="M 1515.234619 1749.08252 L 1515.234619 1069.260742 L 1012.880859 1069.260742 L 1012.880859 1749.08252 L 1515.234619 1749.08252 Z"/>
        <path id="path38" fill="#ffffff" stroke="#000000" stroke-width="12.5" d="M 1012.880859 1719.699951 L 1012.880859 1886.973389 C 1012.880859 1909.263428 1030.939087 1927.32959 1053.27002 1927.32959 L 1474.8396 1927.32959 C 1497.125977 1927.32959 1515.234619 1909.263428 1515.234619 1886.973389 L 1515.234619 1719.699951 L 1012.880859 1719.699951 Z"/>
        <path id="path39" fill="#ffffff" stroke="#000000" stroke-width="12.5" d="M 1515.234619 1096.893311 L 1515.234619 1023.62085 C 1515.234619 1001.366943 1497.125977 983.258301 1474.8396 983.258301 L 1053.27002 983.258301 C 1030.939087 983.258301 1012.880859 1001.366943 1012.880859 1023.62085 L 1012.880859 1096.893311 L 1515.234619 1096.893311 Z"/>
        <g id="g8">
            <path id="path40" fill="#000000" stroke="none" d="M 1264.148438 1832.554199 C 1273.061768 1832.607056 1280.310547 1839.931274 1280.241211 1848.842407 C 1280.19458 1857.753784 1272.93335 1864.972046 1264.050781 1864.972046 L 1263.967041 1864.972046 C 1255.047852 1864.890869 1247.827515 1857.582397 1247.852051 1848.663452 C 1247.921265 1839.801392 1255.182495 1832.554199 1264.148438 1832.554199"/>
        </g>
        <g id="g9">
            <path id="path41" fill="none" stroke="#000000" stroke-width="12.5" d="M 1317.375 1036.480713 L 1160.32959 1036.480713"/>
            <path id="path42" fill="none" stroke="#000000" stroke-width="12.5" d="M 1367.80835 1036.480713 C 1360.13623 1036.480713 1352.388672 1036.480713 1344.594482 1036.480713"/>
        </g>
        <g id="g10">
            <path id="path43" fill="#f59121" stroke="#000000" stroke-width="12.5" d="M 1444.802002 1457.961426 L 1083.313354 1457.961426 L 1083.313354 1172.845459 L 1444.802002 1172.845459 L 1444.802002 1457.961426 Z"/>
            <g id="g11">
                <path id="path44" fill="#c7b299" stroke="none" d="M 1098.659546 1439.365723 L 1098.659546 1191.440918 L 1423.58252 1191.440918 L 1423.58252 1439.365723 L 1098.659546 1439.365723 Z"/>
                <path id="path45" fill="#ffffff" stroke="none" d="M 1414.774902 1200.250244 L 1414.774902 1430.552002 L 1107.467041 1430.552002 L 1107.467041 1200.250244 L 1414.774902 1200.250244 M 1432.391846 1182.633789 L 1089.852539 1182.633789 L 1089.852539 1448.166992 L 1432.391846 1448.166992 L 1432.391846 1182.633789 L 1432.391846 1182.633789 Z"/>
            </g>
            <path id="path46" fill="#ffffff" stroke="#000000" stroke-width="12.5" d="M 1363.334473 1274.721436 C 1363.334473 1297.243408 1345.099365 1315.464111 1322.61377 1315.464111 C 1300.118164 1315.464111 1281.856689 1297.243408 1281.856689 1274.721436 C 1281.856689 1252.242188 1300.118164 1234.005127 1322.61377 1234.005127 C 1345.099365 1234.005127 1363.334473 1252.242188 1363.334473 1274.721436 Z"/>
            <path id="path47" fill="#ffffff" stroke="#ffffff" stroke-width="12.5" d="M 1412.99292 1435.955811 L 1366.559326 1386.199951 L 1289.931641 1430.083984 L 1208.799683 1322.833252 L 1110.563843 1433.25"/>
        </g>
        <g id="g12">
            <path id="path48" fill="#f59121" stroke="none" d="M 1355.811035 1494.651367 L 1176.247559 1494.651367 L 1176.247559 1508.660645 L 1355.811035 1508.660645 L 1355.811035 1494.651367 Z"/>
            <path id="path49" fill="#000000" stroke="none" d="M 1460.79126 1521.824219 L 1067.336304 1521.824219 L 1067.336304 1535.825928 L 1460.79126 1535.825928 L 1460.79126 1521.824219 Z"/>
            <path id="path50" fill="#c7b299" stroke="none" d="M 1460.79126 1632.114502 L 1067.336304 1632.114502 L 1067.336304 1646.132568 L 1460.79126 1646.132568 L 1460.79126 1632.114502 Z"/>
            <path id="path51" fill="#c7b299" stroke="none" d="M 1460.79126 1606.14209 L 1067.336304 1606.14209 L 1067.336304 1620.168457 L 1460.79126 1620.168457 L 1460.79126 1606.14209 Z"/>
            <g id="g13">
                <g id="g14">
                    <path id="path52" fill="#f59121" stroke="none" d="M 1256.114258 1546.486816 L 1067.336304 1546.486816 L 1067.336304 1594.284912 L 1256.114258 1594.284912 L 1256.114258 1546.486816 Z"/>
                </g>
                <g id="g15">
                    <path id="path53" fill="#000000" stroke="none" d="M 1459.379395 1546.486816 L 1270.605957 1546.486816 L 1270.605957 1594.284912 L 1459.379395 1594.284912 L 1459.379395 1546.486816 Z"/>
                </g>
            </g>
        </g>
    </g>
    <g id="g16">
        <g id="g17">
            <g id="g18">
                <path id="path54" fill="none" stroke="#000000" stroke-width="12.5" d="M 3210.712158 1424.09082 L 3210.712158 1441.705322 L 3193.097656 1441.705322"/>
                <path id="path55" fill="none" stroke="#000000" stroke-width="12.5" stroke-dasharray="27.106833 18.071208" stroke-dashoffset="0" d="M 3167.633301 1441.705322 L 2925.685791 1441.705322"/>
                <path id="path56" fill="none" stroke="#000000" stroke-width="12.5" d="M 2912.945801 1441.705322 L 2895.327148 1441.705322 L 2895.327148 1424.09082"/>
                <path id="path57" fill="none" stroke="#000000" stroke-width="12.5" stroke-dasharray="26.734833 17.823208" stroke-dashoffset="0" d="M 2895.327148 1398.972412 L 2895.327148 1223.140625"/>
                <path id="path58" fill="none" stroke="#000000" stroke-width="12.5" d="M 2895.327148 1210.581543 L 2895.327148 1192.9646 L 2912.945801 1192.9646"/>
                <path id="path59" fill="none" stroke="#000000" stroke-width="12.5" stroke-dasharray="27.106833 18.071208" stroke-dashoffset="0" d="M 2938.413574 1192.9646 L 3180.361328 1192.9646"/>
                <path id="path60" fill="none" stroke="#000000" stroke-width="12.5" d="M 3193.097656 1192.9646 L 3210.712158 1192.9646 L 3210.712158 1210.581543"/>
                <path id="path61" fill="none" stroke="#000000" stroke-width="12.5" stroke-dasharray="26.734833 17.823208" stroke-dashoffset="0" d="M 3210.712158 1235.69751 L 3210.712158 1411.533691"/>
            </g>
        </g>
        <g id="g19">
            <path id="path62" fill="none" stroke="#000000" stroke-width="12.5" d="M 3256.830566 1380.226807 L 2941.445313 1380.226807 L 2941.445313 1131.481934 L 3256.830566 1131.481934 L 3256.830566 1380.226807 Z"/>
            <g id="g20">
                <path id="path63" fill="#f59121" stroke="none" d="M 2955.951416 1362.880615 L 2955.951416 1148.832031 L 3237.193359 1148.832031 L 3237.193359 1362.880615 L 2955.951416 1362.880615 Z"/>
                <path id="path64" fill="#ffffff" stroke="none" d="M 3228.383789 1157.639648 L 3228.383789 1354.079346 L 2964.756592 1354.079346 L 2964.756592 1157.639648 L 3228.383789 1157.639648 M 3246.002686 1140.020752 L 2947.14209 1140.020752 L 2947.14209 1371.694336 L 3246.002686 1371.694336 L 3246.002686 1140.020752 L 3246.002686 1140.020752 Z"/>
            </g>
            <path id="path65" fill="#ffffff" stroke="none" d="M 3185.756592 1220.367432 C 3185.756592 1240.016846 3169.838867 1255.918457 3150.222168 1255.918457 C 3130.597656 1255.918457 3114.662842 1240.016846 3114.662842 1220.367432 C 3114.662842 1200.754883 3130.597656 1184.84082 3150.222168 1184.84082 C 3169.838867 1184.84082 3185.756592 1200.754883 3185.756592 1220.367432 Z"/>
            <path id="path66" fill="#ffffff" stroke="#ffffff" stroke-width="12.5" d="M 3229.071289 1361.037109 L 3188.564697 1317.62915 L 3121.710449 1355.9104 L 3050.917969 1262.345459 L 2965.216797 1358.677002"/>
        </g>
    </g>
    <g id="g21">
        <path id="path67" fill="none" stroke="#000000" stroke-width="12.5" d="M 1266.017822 696.19751 L 1266.017822 980.997803"/>
        <path id="path68" fill="none" stroke="#000000" stroke-width="12.5" d="M 1240.489258 687.359619 C 1240.489258 701.460938 1251.912964 712.892822 1266.017822 712.892822 C 1280.123291 712.892822 1291.561279 701.460938 1291.561279 687.359619 C 1291.561279 673.258789 1280.123291 661.824707 1266.017822 661.824707 C 1251.912964 661.824707 1240.489258 673.258789 1240.489258 687.359619 Z"/>
        <g id="g22">
            <path id="path69" fill="none" stroke="#000000" stroke-width="12.5" d="M 1657.577148 196.044922 L 1785.646973 196.044922 L 2232.42041 466.209229 C 2232.245605 469.692139 2232.08667 585.437012 2232.08667 585.437012 L 1000.081665 585.437012 L 1000.081665 459.962891 L 1657.577148 196.044922 Z"/>
            <g id="g23">
                <path id="path70" fill="none" stroke="#000000" stroke-width="12.5" d="M 1664.187012 451.870117 C 1702.938232 409.741211 1735.30127 367.613037 1774.050293 325.480469 C 1735.500488 325.480469 1703.330811 325.480469 1664.758789 325.480469"/>
                <path id="path71" fill="none" stroke="#000000" stroke-width="12.5" d="M 1660.618164 195.127441 C 1661.076172 287.62207 1661.076172 376.857422 1660.618164 468.859863"/>
                <path id="path72" fill="none" stroke="#000000" stroke-width="12.5" d="M 1788.487061 195.127441 C 1788.979492 287.62207 1788.979492 376.857422 1788.487061 468.859863"/>
                <path id="path73" fill="none" stroke="#000000" stroke-width="12.5" d="M 1791.111572 462.017822 L 1656.32959 462.017822"/>
                <path id="path74" fill="none" stroke="#000000" stroke-width="12.5" d="M 1664.187012 328.460693 C 1702.938232 286.326416 1741.681396 244.19751 1780.438721 202.067139 C 1741.876709 202.067139 1703.330811 202.067139 1664.758789 202.067139"/>
            </g>
            <g id="g24">
                <path id="path75" fill="none" stroke="#000000" stroke-width="12.5" d="M 2228.570801 468.906494 C 2228.570801 503.348633 2228.570801 537.787109 2228.570801 572.231201 C 2186.436279 537.614258 2144.305908 503.00293 2102.171143 468.389893"/>
                <path id="path76" fill="none" stroke="#000000" stroke-width="12.5" d="M 2107.460938 468.906494 C 2107.460938 503.348633 2107.460938 537.787109 2107.460938 572.231201 C 2065.322021 537.614258 2023.195801 503.00293 1981.057129 468.389893"/>
                <path id="path77" fill="none" stroke="#000000" stroke-width="12.5" d="M 1984.2146 468.906494 C 1984.2146 503.348633 1984.2146 537.787109 1984.2146 572.231201 C 1942.080078 537.614258 1899.95752 503.00293 1857.831299 468.389893"/>
                <path id="path78" fill="none" stroke="#000000" stroke-width="12.5" d="M 1860.972412 468.906494 C 1860.972412 503.348633 1860.972412 537.787109 1860.972412 572.231201 C 1818.850098 537.614258 1776.711182 503.00293 1734.584961 468.389893"/>
                <path id="path79" fill="none" stroke="#000000" stroke-width="12.5" d="M 1737.738525 468.906494 C 1737.738525 503.348633 1737.738525 537.787109 1737.738525 572.231201 C 1695.612061 537.614258 1653.471191 503.00293 1611.34668 468.389893"/>
                <path id="path80" fill="none" stroke="#000000" stroke-width="12.5" d="M 1614.500244 468.906494 C 1614.500244 503.348633 1614.500244 537.787109 1614.500244 572.231201 C 1572.361572 537.614258 1530.237061 503.00293 1488.098877 468.389893"/>
                <path id="path81" fill="none" stroke="#000000" stroke-width="12.5" d="M 1491.25415 468.906494 C 1491.25415 503.348633 1491.25415 537.787109 1491.25415 572.231201 C 1449.125244 537.614258 1406.987061 503.00293 1364.860352 468.389893"/>
                <path id="path82" fill="none" stroke="#000000" stroke-width="12.5" d="M 1368.015869 468.906494 C 1368.015869 503.348633 1368.015869 537.787109 1368.015869 572.231201 C 1325.887451 537.614258 1283.748779 503.00293 1241.622437 468.389893"/>
                <path id="path83" fill="none" stroke="#000000" stroke-width="12.5" d="M 1244.777954 468.906494 C 1244.777954 503.348633 1244.777954 537.787109 1244.777954 572.231201 C 1202.63916 537.614258 1160.512451 503.00293 1118.38623 468.389893"/>
                <path id="path84" fill="none" stroke="#000000" stroke-width="12.5" d="M 1121.527466 468.906494 C 1121.527466 503.348633 1121.527466 537.787109 1121.527466 572.231201 C 1079.401245 537.614258 1043.654541 503.00293 1001.526245 468.389893"/>
                <path id="path85" fill="none" stroke="#000000" stroke-width="12.5" d="M 2237.087402 470.894531 L 998.692139 470.894531"/>
                <path id="path86" fill="none" stroke="#000000" stroke-width="12.5" d="M 2237.087402 580.705078 L 998.692139 580.705078"/>
                <path id="path87" fill="none" stroke="#000000" stroke-width="12.5" d="M 1002.950439 474.436768 L 1002.950439 575.386719"/>
            </g>
            <g id="g25">
                <path id="path88" fill="none" stroke="#000000" stroke-width="12.5" d="M 1656.866699 590.1875 C 1698.250732 590.1875 1739.638672 590.1875 1780.996338 590.1875 C 1739.427002 632.312012 1697.835938 674.446777 1656.248291 716.577148"/>
                <path id="path89" fill="none" stroke="#000000" stroke-width="12.5" d="M 1656.866699 711.293701 C 1698.250732 711.293701 1739.638672 711.293701 1780.996338 711.293701 C 1739.427002 753.432617 1697.835938 795.560791 1656.248291 837.693359"/>
                <path id="path90" fill="none" stroke="#000000" stroke-width="12.5" d="M 1656.866699 834.538086 C 1698.250732 834.538086 1739.638672 834.538086 1780.996338 834.538086 C 1739.427002 876.668457 1697.835938 918.797119 1656.248291 960.92749"/>
                <path id="path91" fill="none" stroke="#000000" stroke-width="12.5" d="M 1656.866699 957.775879 C 1698.250732 957.775879 1739.638672 957.775879 1780.996338 957.775879 C 1739.427002 999.9104 1697.835938 1042.037109 1656.248291 1084.169678"/>
                <path id="path92" fill="none" stroke="#000000" stroke-width="12.5" d="M 1656.866699 1081.026367 C 1698.250732 1081.026367 1739.638672 1081.026367 1780.996338 1081.026367 C 1739.427002 1123.150635 1697.835938 1165.283203 1656.248291 1207.409424"/>
                <path id="path93" fill="none" stroke="#000000" stroke-width="12.5" d="M 1656.866699 1204.25415 C 1698.250732 1204.25415 1739.638672 1204.25415 1780.996338 1204.25415 C 1739.427002 1246.39502 1697.835938 1288.523438 1656.248291 1330.657959"/>
                <path id="path94" fill="none" stroke="#000000" stroke-width="12.5" d="M 1656.866699 1327.500488 C 1698.250732 1327.500488 1739.638672 1327.500488 1780.996338 1327.500488 C 1739.427002 1369.643311 1697.835938 1411.765869 1656.248291 1453.900391"/>
                <path id="path95" fill="none" stroke="#000000" stroke-width="12.5" d="M 1656.866699 1450.742432 C 1698.250732 1450.742432 1739.638672 1450.742432 1780.996338 1450.742432 C 1739.427002 1492.869141 1697.835938 1535.015869 1656.248291 1577.142334"/>
                <path id="path96" fill="none" stroke="#000000" stroke-width="12.5" d="M 1656.866699 1573.985107 C 1698.250732 1573.985107 1739.638672 1573.985107 1780.996338 1573.985107 C 1739.427002 1616.119385 1697.835938 1658.229736 1656.248291 1700.368408"/>
                <path id="path97" fill="none" stroke="#000000" stroke-width="12.5" d="M 1656.866699 1697.2229 C 1698.250732 1697.2229 1739.638672 1697.2229 1780.996338 1697.2229 C 1739.427002 1739.353271 1697.835938 1781.487915 1656.248291 1823.610474"/>
                <path id="path98" fill="none" stroke="#000000" stroke-width="12.5" d="M 1659.267578 581.671143 L 1659.267578 1820.058228"/>
                <path id="path99" fill="none" stroke="#000000" stroke-width="12.5" d="M 1791.193115 581.671143 L 1791.193115 1820.058228"/>
                <path id="path100" fill="none" stroke="#000000" stroke-width="12.5" d="M 1663.519775 1815.802124 L 1784.796631 1815.802124"/>
            </g>
            <path id="path101" fill="#ffffff" stroke="#000000" stroke-width="12.5" d="M 1522.644775 1874.875732 L 1924.786865 1874.875732 L 1924.786865 1811.049438 L 1522.644775 1811.049438 L 1522.644775 1874.875732 Z"/>
            <path id="path102" fill="#ffffff" stroke="#000000" stroke-width="12.5" d="M 1449.229004 1900.425293 L 1998.200195 1900.425293 L 1998.200195 1862.123657 L 1449.229004 1862.123657 L 1449.229004 1900.425293 Z"/>
        </g>
        <path id="path103" fill="#ffffff" stroke="#000000" stroke-width="12.5" d="M 1109.625732 661.824707 L 1422.400391 661.824707 L 1422.400391 585.227539 L 1109.625732 585.227539 L 1109.625732 661.824707 Z"/>
    </g>
    <g id="g26">
        <path id="path104" fill="#000000" stroke="none" d="M 2927.016602 757.511719 C 2927.016602 759.049561 2926.931152 760.337646 2926.776855 761.391357 C 2926.593506 762.445068 2926.349365 763.275391 2926.015869 763.93457 C 2925.685791 764.569092 2925.307617 765.008789 2924.860107 765.297607 C 2924.416748 765.557861 2923.952393 765.700439 2923.456299 765.700439 L 2897.703369 765.700439 L 2897.703369 793.756348 C 2897.703369 794.325928 2897.556885 794.807861 2897.28833 795.217041 C 2897.015869 795.62793 2896.543701 795.984131 2895.880615 796.282959 C 2895.213135 796.602539 2894.350342 796.842529 2893.23584 797.001221 C 2892.128662 797.164063 2890.761719 797.247559 2889.093506 797.247559 C 2887.449463 797.247559 2886.062012 797.164063 2884.963379 797.001221 C 2883.852539 796.842529 2882.973633 796.602539 2882.318359 796.282959 C 2881.647217 795.984131 2881.158936 795.62793 2880.849609 795.217041 C 2880.55249 794.807861 2880.414307 794.325928 2880.414307 793.756348 L 2880.414307 765.700439 L 2854.722412 765.700439 C 2854.258545 765.700439 2853.794434 765.557861 2853.379395 765.297607 C 2852.956543 765.008789 2852.582275 764.569092 2852.265137 763.93457 C 2851.918701 763.275391 2851.654541 762.445068 2851.467041 761.391357 C 2851.271973 760.337646 2851.182373 759.049561 2851.182373 757.511719 C 2851.182373 756.008057 2851.271973 754.734619 2851.43457 753.641602 C 2851.589111 752.577881 2851.825439 751.725586 2852.126709 751.088867 C 2852.435791 750.459961 2852.785889 750 2853.168457 749.713379 C 2853.54248 749.44458 2853.98584 749.30835 2854.486816 749.30835 L 2880.414307 749.30835 L 2880.414307 721.327881 C 2880.414307 720.758301 2880.55249 720.261719 2880.849609 719.779541 C 2881.158936 719.317871 2881.647217 718.93335 2882.318359 718.64209 C 2882.973633 718.318848 2883.852539 718.083008 2884.963379 717.934082 C 2886.062012 717.771729 2887.449463 717.687988 2889.093506 717.687988 C 2890.761719 717.687988 2892.128662 717.771729 2893.23584 717.934082 C 2894.350342 718.083008 2895.213135 718.318848 2895.880615 718.64209 C 2896.543701 718.93335 2897.015869 719.317871 2897.28833 719.779541 C 2897.556885 720.261719 2897.703369 720.758301 2897.703369 721.327881 L 2897.703369 749.30835 L 2923.70459 749.30835 C 2924.140137 749.30835 2924.562988 749.44458 2924.994141 749.713379 C 2925.40918 750 2925.767334 750.459961 2926.064697 751.088867 C 2926.365234 751.725586 2926.593506 752.577881 2926.776855 753.641602 C 2926.931152 754.734619 2927.016602 756.008057 2927.016602 757.511719 Z"/>
    </g>
    <g id="g27">
        <path id="path105" fill="#000000" stroke="none" d="M 397.182495 1239.355225 C 397.182495 1241.007568 397.091187 1242.39502 396.920044 1243.526367 C 396.7229 1244.661621 396.460327 1245.554688 396.106201 1246.262451 C 395.750488 1246.944336 395.347534 1247.42041 394.867432 1247.729492 C 394.38501 1248.010254 393.890747 1248.166992 393.351685 1248.166992 L 365.651733 1248.166992 L 365.651733 1278.338623 C 365.651733 1278.953369 365.493286 1279.469971 365.206299 1279.915527 C 364.907104 1280.35083 364.404541 1280.733398 363.692505 1281.054443 C 362.970337 1281.402344 362.040405 1281.65918 360.848389 1281.829834 C 359.654175 1282.004883 358.189209 1282.094727 356.386719 1282.094727 C 354.618774 1282.094727 353.131592 1282.004883 351.94751 1281.829834 C 350.75708 1281.65918 349.800781 1281.402344 349.105469 1281.054443 C 348.380859 1280.733398 347.854126 1280.35083 347.520508 1279.915527 C 347.200806 1279.469971 347.05249 1278.953369 347.05249 1278.338623 L 347.05249 1248.166992 L 319.421631 1248.166992 C 318.917114 1248.166992 318.425049 1248.010254 317.975342 1247.729492 C 317.515503 1247.42041 317.114502 1246.944336 316.772827 1246.262451 C 316.402466 1245.554688 316.11792 1244.661621 315.922485 1243.526367 C 315.706665 1242.39502 315.613281 1241.007568 315.613281 1239.355225 C 315.613281 1237.73999 315.706665 1236.368652 315.875732 1235.192871 C 316.050415 1234.047607 316.300903 1233.129883 316.622437 1232.446289 C 316.955811 1231.770996 317.334595 1231.276855 317.747559 1230.967041 C 318.148315 1230.674072 318.630371 1230.530029 319.169678 1230.530029 L 347.05249 1230.530029 L 347.05249 1200.4375 C 347.05249 1199.822754 347.200806 1199.290039 347.520508 1198.76709 C 347.854126 1198.272949 348.380859 1197.861572 349.105469 1197.546631 C 349.800781 1197.196777 350.75708 1196.946289 351.94751 1196.783203 C 353.131592 1196.608887 354.618774 1196.52124 356.386719 1196.52124 C 358.189209 1196.52124 359.654175 1196.608887 360.848389 1196.783203 C 362.040405 1196.946289 362.970337 1197.196777 363.692505 1197.546631 C 364.404541 1197.861572 364.907104 1198.272949 365.206299 1198.76709 C 365.493286 1199.290039 365.651733 1199.822754 365.651733 1200.4375 L 365.651733 1230.530029 L 393.616211 1230.530029 C 394.086182 1230.530029 394.543701 1230.674072 395.005859 1230.967041 C 395.449219 1231.276855 395.839966 1231.770996 396.151245 1232.446289 C 396.48291 1233.129883 396.7229 1234.047607 396.920044 1235.192871 C 397.091187 1236.368652 397.182495 1237.73999 397.182495 1239.355225 Z"/>
    </g>
    <g id="g28">
        <g id="g29">
            <path id="path106" fill="#231f20" stroke="none" d="M 305.77417 2174.473389 L 655.291992 2174.473389 L 655.291992 2162.981934 L 305.77417 2162.981934 L 305.77417 2174.473389 Z"/>
            <path id="path107" fill="#231f20" stroke="none" d="M 425.346313 2211.26123 L 655.291992 2211.26123 L 655.291992 2199.77832 L 425.346313 2199.77832 L 425.346313 2211.26123 Z"/>
        </g>
        <g id="g30">
            <path id="path108" fill="#ffffff" stroke="none" d="M 671.098389 1818.455078 C 521.641357 1818.455078 394.01709 1891.754272 343.459595 1995.021606 C 394.01709 2098.297363 521.641357 2171.608887 671.098389 2171.608887 C 820.552979 2171.608887 948.171265 2098.297363 998.734985 1995.021606 C 948.171265 1891.754272 820.552979 1818.455078 671.098389 1818.455078 Z"/>
            <path id="path109" fill="#ffffff" stroke="#000000" stroke-width="12.5" d="M 505.167969 1995.021606 C 505.167969 1903.395874 579.457886 1829.091675 671.094116 1829.091675 C 762.742554 1829.091675 837.02417 1903.395874 837.02417 1995.021606 C 837.02417 2086.667969 762.742554 2160.959961 671.094116 2160.959961 C 579.468262 2160.959961 505.167969 2086.667969 505.167969 1995.021606 Z"/>
            <path id="path110" fill="none" stroke="#000000" stroke-width="12.5" d="M 671.098389 1818.455078 C 521.641357 1818.455078 394.01709 1891.754272 343.459595 1995.021606 C 394.01709 2098.297363 521.641357 2171.608887 671.098389 2171.608887 C 820.552979 2171.608887 948.171265 2098.297363 998.734985 1995.021606 C 948.171265 1891.754272 820.552979 1818.455078 671.098389 1818.455078 Z"/>
            <path id="path111" fill="none" stroke="#000000" stroke-width="12.5" d="M 832.85376 1849.660278 C 787.55127 1835.597778 742.741333 1824.729492 690.446289 1827.126099 C 541.144165 1833.917603 412.260498 1918.145874 366.46167 2023.594238"/>
            <path id="path112" fill="#f59121" stroke="none" d="M 717.84082 1915.822388 L 671.098389 1995.021606 L 671.098389 1903.050049 C 620.310913 1903.050049 579.120361 1944.232056 579.120361 1995.021606 C 579.120361 2045.827515 620.310913 2086.985352 671.098389 2086.985352 C 721.893677 2086.985352 763.080322 2045.827515 763.080322 1995.021606 C 763.080322 1961.289551 744.895874 1931.817993 717.84082 1915.822388 Z"/>
            <path id="path113" fill="none" stroke="#000000" stroke-width="12.5" d="M 729.702026 2096.535156 C 673.637085 2128.908203 601.955444 2109.710938 569.59082 2053.627441 C 537.217529 1997.577026 556.42749 1925.88916 612.500366 1893.500122"/>
            <path id="path114" fill="none" stroke="#000000" stroke-width="12.5" d="M 762.443359 2068.491699 C 757.86792 2074.196289 752.75708 2079.445313 747.188721 2084.14502"/>
        </g>
    </g>
    <g id="g31">
        <path id="path115" fill="#ffffff" stroke="#000000" stroke-width="12.5" stroke-linejoin="bevel" d="M 2436.497314 1141.821289 L 2434.79248 1141.821289 C 2454.169189 1165.037109 2468.231689 1245.550293 2475.539551 1275.927734 L 2698.789795 1275.927734 C 2705.951416 1246.209961 2719.635498 1166.281982 2738.381348 1143.399902 C 2784.748047 1102.030518 2814.008057 1041.924805 2814.044678 974.839111 C 2814.12207 850.209717 2713.064209 749.098877 2588.442383 749.045654 C 2463.759521 749.001221 2362.640869 850.040771 2362.616455 974.672607 C 2362.592041 1040.932617 2391.067139 1100.532959 2436.497314 1141.821289 Z"/>
        <path id="path116" fill="#f59121" stroke="none" d="M 2486.037598 1400.656982 C 2489.459717 1453.606934 2551.060303 1444.911865 2587.76709 1445.310303 C 2625.193604 1445.693115 2689.90332 1455.288086 2690.615479 1399.212891"/>
        <path id="path117" fill="none" stroke="#000000" stroke-width="12.5" d="M 2486.037598 1400.656982 C 2489.459717 1453.606934 2551.060303 1444.911865 2587.76709 1445.310303 C 2625.193604 1445.693115 2689.90332 1455.288086 2690.615479 1399.212891"/>
        <path id="path118" fill="none" stroke="#000000" stroke-width="12.5" d="M 2552.932129 1006.882813 L 2552.932129 1262.192871"/>
        <path id="path119" fill="none" stroke="#000000" stroke-width="12.5" d="M 2623.720947 1006.882813 L 2623.720947 1262.192871"/>
        <path id="path120" fill="none" stroke="#000000" stroke-width="12.5" d="M 2507.705078 1009.720947 L 2668.95166 1009.720947"/>
        <path id="path121" fill="#000000" stroke="none" d="M 2699.786865 1385.524658 L 2583.925781 1385.524658 L 2583.925781 1403.184082 L 2699.786865 1403.184082 L 2699.786865 1385.524658 Z"/>
        <path id="path122" fill="#000000" stroke="none" d="M 2699.786865 1351.263184 L 2583.925781 1351.263184 L 2583.925781 1368.923096 L 2699.786865 1368.923096 L 2699.786865 1351.263184 Z"/>
        <path id="path123" fill="none" stroke="#000000" stroke-width="12.5" d="M 2444.297363 1041.912842 C 2403.172119 970.713379 2427.573975 879.693848 2498.769531 838.584717 C 2569.965088 797.485352 2660.98877 821.86499 2702.102051 893.056152"/>
        <path id="path124" fill="none" stroke="#000000" stroke-width="12.5" d="M 2479.872803 1083.488037 C 2472.666504 1077.679443 2465.998047 1071.193359 2460.016357 1064.105225"/>
        <path id="path125" fill="#ffffff" stroke="#000000" stroke-width="12.5" d="M 2480.784424 1366.807129 L 2480.784424 1280.474854"/>
    </g>
    <g id="g32">
        <path id="path126" fill="#ffffff" stroke="#000000" stroke-width="12.5" d="M 2504.07959 623.844727 C 2472.207031 623.844727 2444.435791 641.656738 2430.170166 667.859131 L 1982.172119 667.859131 L 1939.44751 621.325928 L 1873.557861 621.325928 L 1827.944092 671.000488 L 1922.996094 671.000488 L 1922.996094 744.873291 L 1827.944092 744.873291 L 1873.557861 794.541748 L 1939.44751 794.541748 L 1982.172119 748.028809 L 2430.170166 748.028809 C 2444.435791 774.210938 2472.207031 792.034912 2504.07959 792.034912 C 2550.442139 792.034912 2588.169434 754.321289 2588.169434 707.945068 C 2588.169434 661.570557 2550.442139 623.844727 2504.07959 623.844727 Z M 2504.07959 747.892578 C 2482.041504 747.892578 2464.11792 729.972656 2464.11792 707.938721 C 2464.11792 685.890869 2482.041504 667.970947 2504.07959 667.970947 C 2526.096924 667.970947 2544.04126 685.890869 2544.04126 707.938721 C 2544.04126 729.972656 2526.096924 747.892578 2504.07959 747.892578 Z"/>
    </g>
    <g id="g33">
        <path id="path127" fill="#ffffff" stroke="#000000" stroke-width="8.333333" d="M 2069.810303 1111.37085 L 1973.720947 1111.37085 L 1973.720947 1015.27124 L 2069.810303 1015.27124 L 2069.810303 1111.37085 Z"/>
        <path id="path128" fill="none" stroke="#000000" stroke-width="8.333333" d="M 1983.075439 1023.54126 L 2060.44751 1103.09668"/>
        <path id="path129" fill="none" stroke="#000000" stroke-width="8.333333" d="M 2060.44751 1023.54126 L 1983.075439 1103.09668"/>
    </g>
    <g id="g34">
        <path id="path130" fill="#ffffff" stroke="#000000" stroke-width="8.333333" d="M 3191.880859 1775.445923 L 3095.790771 1775.445923 L 3095.790771 1679.352051 L 3191.880859 1679.352051 L 3191.880859 1775.445923 Z"/>
        <path id="path131" fill="none" stroke="#000000" stroke-width="8.333333" d="M 3105.149414 1687.620117 L 3182.517822 1767.169312"/>
        <path id="path132" fill="none" stroke="#000000" stroke-width="8.333333" d="M 3182.517822 1687.620117 L 3105.149414 1767.169312"/>
    </g>
    <g id="g35">
        <path id="path133" fill="#ffffff" stroke="#000000" stroke-width="12.5" stroke-linejoin="round" d="M 2576.210938 1971.897461 C 2582.179932 1952.858765 2591.766846 1934.747437 2605.125244 1918.731812 L 2604.946289 1918.918701 L 2586.89209 1882.094604 L 2619.521729 1855.552002 L 2651.902344 1880.69873 L 2651.691406 1880.878052 C 2670.009521 1871.104248 2689.703857 1865.301636 2709.57666 1863.449951 L 2722.898682 1824.774292 L 2764.671143 1829.074951 L 2769.761475 1869.565918 C 2788.845459 1875.421265 2807.021729 1885.060669 2822.984131 1898.21582 L 2859.592773 1880.255493 L 2886.200439 1912.9375 L 2861.135498 1945.131714 C 2870.884521 1963.458374 2876.593506 1983.119995 2878.498047 2003.057983 L 2917.055908 2016.233398 L 2912.807617 2058.12793 L 2872.28833 2063.202148 C 2866.445313 2082.293945 2856.833984 2100.478516 2843.59375 2116.449219 L 2861.501709 2153.013428 L 2828.86377 2179.547363 L 2796.74707 2154.563232 C 2778.387939 2164.29248 2758.628662 2169.99707 2738.739746 2171.848633 L 2725.454102 2210.520508 L 2683.632813 2206.231934 L 2678.562744 2165.590332 C 2659.475098 2159.751709 2641.36792 2150.059082 2625.429688 2136.891602 L 2588.727051 2154.901367 L 2562.152588 2122.251709 L 2587.270508 2089.967773 C 2577.618896 2071.694336 2571.946533 2051.979492 2570.070801 2032.147583 L 2531.342041 2018.878296 L 2535.593994 1977.024658 L 2576.210938 1971.897461 Z M 2768.789063 1981.386108 C 2748.753174 1956.776978 2712.632324 1953.127075 2688.014893 1973.134644 C 2663.401611 1993.162109 2659.686768 2029.246338 2679.697754 2053.867432 C 2699.717529 2078.477051 2735.89917 2082.23291 2760.496094 2062.241699 C 2785.11377 2042.222168 2788.841064 2005.995728 2768.789063 1981.386108 Z"/>
        <g id="g36">
            <path id="path134" fill="none" stroke="#000000" stroke-width="12.5" d="M 2800.128906 2099.436768 C 2754.913818 2142.303711 2683.5271 2140.411621 2640.656006 2095.212891 C 2597.788574 2049.994141 2599.689209 1978.607056 2644.883545 1935.732056"/>
            <path id="path135" fill="none" stroke="#000000" stroke-width="12.5" d="M 2824.473145 2065.862793 C 2821.474609 2072.202393 2817.869385 2078.26123 2813.710938 2083.933838"/>
            <path id="path136" fill="none" stroke="#000000" stroke-width="12.5" d="M 2667.161621 1958.075073 C 2701.149902 1925.836304 2754.807861 1927.268799 2787.034424 1961.244995 C 2819.25293 1995.225098 2817.828857 2048.891113 2783.852539 2081.109863"/>
            <path id="path137" fill="none" stroke="#000000" stroke-width="12.5" d="M 2648.867188 1983.290894 C 2651.113281 1978.529907 2653.827637 1973.972412 2656.952637 1969.716675"/>
        </g>
    </g>
    <g id="g37">
        <g id="g38">
            <path id="path138" fill="#ffffff" stroke="#000000" stroke-width="10.416667" d="M 2789.858398 378.151611 C 2707.237061 460.782959 2573.325684 460.799072 2490.696533 378.179932 C 2408.120117 295.607422 2408.10376 161.663818 2490.753906 79.016113 C 2573.305908 -3.533691 2707.257568 -3.533691 2789.834229 79.04248 C 2872.443115 161.663818 2872.430908 295.584961 2789.858398 378.151611 Z"/>
            <path id="path139" fill="#ffffff" stroke="#000000" stroke-width="10.416667" d="M 2738.662109 326.935059 C 2684.33252 381.278809 2596.29541 381.258301 2541.966064 326.935059 C 2487.685303 272.64624 2487.669189 184.60498 2542.00293 130.271729 C 2596.275391 76.01123 2684.299805 76.027588 2738.57251 130.306152 C 2792.9021 184.637451 2792.922607 272.680908 2738.662109 326.935059 Z"/>
            <path id="path140" fill="#f59121" stroke="none" d="M 2708.258301 296.500977 C 2670.677002 334.070068 2609.87793 334.102539 2572.341309 296.547607 C 2534.804688 259.014893 2534.78833 198.217773 2572.365723 160.632568 C 2609.820801 123.171143 2670.685547 123.128418 2708.22583 160.660889 C 2745.758301 198.217773 2745.693359 259.043213 2708.258301 296.500977 Z"/>
            <path id="path141" fill="#ffd45b" stroke="none" d="M 2674.221191 262.477539 C 2655.479004 281.211182 2625.108154 281.201172 2606.390869 262.49585 C 2587.681641 243.788818 2587.697998 213.435791 2606.443604 194.702148 C 2625.108154 176.023193 2655.43457 176.023193 2674.135742 194.734619 C 2692.861328 213.446289 2692.893555 243.813232 2674.221191 262.477539 Z"/>
            <path id="path142" fill="none" stroke="#000000" stroke-width="8.333333" stroke-linecap="round" d="M 2629.53125 264.536621 C 2609.45459 259.169678 2597.544434 238.535889 2602.927734 218.465332 C 2608.295166 198.382568 2628.937256 186.472412 2648.989258 191.852051"/>
        </g>
        <g id="g39">
            <g id="g40">
                <path id="path143" fill="#f59121" stroke="none" d="M 2784.66626 224.77832 L 2867.055908 224.810791 L 2892.800293 263.58667 L 2810.419189 263.655762 L 2784.66626 224.77832 Z"/>
                <path id="path144" fill="#ffffff" stroke="none" d="M 2795.60791 230.657959 L 2863.90625 230.68457 L 2881.854736 257.724854 L 2813.568359 257.780029 L 2795.60791 230.657959 M 2773.73291 218.902588 L 2785.80957 237.144287 L 2803.782471 264.267822 L 2807.269775 269.53125 L 2813.580811 269.525391 L 2881.87085 269.470459 L 2903.737793 269.452148 L 2891.644775 251.22876 L 2873.696289 224.19043 L 2870.213135 218.943359 L 2863.9104 218.939209 L 2795.612061 218.913086 L 2773.73291 218.902588 L 2773.73291 218.902588 Z"/>
            </g>
            <g id="g41">
                <path id="path145" fill="#f59121" stroke="none" d="M 2810.382568 192.102051 L 2892.84082 192.06958 L 2867.043457 230.897949 L 2784.621582 230.918213 L 2810.382568 192.102051 Z"/>
                <path id="path146" fill="#ffffff" stroke="none" d="M 2881.887207 197.947021 L 2863.897949 225.024658 L 2795.566895 225.042969 L 2813.535645 197.97583 L 2881.887207 197.947021 M 2903.791016 186.192139 L 2881.883301 186.202148 L 2813.532227 186.230469 L 2807.23291 186.232422 L 2803.75 191.479492 L 2785.7854 218.546631 L 2773.676025 236.791992 L 2795.566895 236.787842 L 2863.9021 236.769531 L 2870.192871 236.767578 L 2873.679932 231.522461 L 2891.669189 204.443359 L 2903.791016 186.192139 L 2903.791016 186.192139 Z"/>
            </g>
            <path id="path147" fill="#000000" stroke="#000000" stroke-width="4.166667" d="M 2641.953613 230.9104 C 2638.42627 230.92041 2635.581543 229.532959 2635.581543 227.7771 L 2635.581543 227.7771 C 2635.581543 226.035889 2638.42627 224.633789 2641.982422 224.64209 L 2875.788086 224.633789 C 2879.31958 224.658203 2882.212891 226.068359 2882.212891 227.7771 L 2882.212891 227.7771 C 2882.224854 229.508789 2879.343994 230.92041 2875.791504 230.92041 L 2641.953613 230.9104 Z"/>
        </g>
    </g>
</svg>
